<svg width="276" height="292" viewBox="0 0 276 292" fill="none" xmlns="http://www.w3.org/2000/svg">
<path d="M218.215 175.562C215.584 179.622 212.733 183.78 209.509 188.619C208.732 189.053 207.972 189.478 207.227 189.893C210.841 189.249 213.144 188.686 214.95 188.047C216.625 187.454 217.871 186.795 219.339 185.944C217.924 182.333 218.071 179.882 218.215 175.562Z" fill="#CFCFCF"/>
<path d="M168.255 89.111C166.694 98.2188 167.157 101.837 173.346 102.367C179.64 102.739 184.424 99.6025 195.289 87.8589V74.2348C192.63 75.5664 189.88 76.0746 186.512 76.4113C184.269 76.4188 182.164 76.3843 180.193 76.3021L177.745 89.111C174.401 89.2532 171.377 89.3534 168.255 89.111Z" fill="#FFE6D9"/>
<path d="M234.085 137.983C227.416 142.336 221.854 144.522 213.546 145.906C211.758 148.827 210.192 151.42 208.721 153.856L208.72 153.857C208.711 153.872 208.703 153.886 208.694 153.901C208.196 154.726 207.708 155.533 207.227 156.329C202.876 163.519 199.001 169.794 191.954 180.061C185.012 183.681 179.482 186.909 174.399 190.25C172.298 191.632 170.273 193.032 168.255 194.487C166.394 195.83 164.539 197.219 162.638 198.683C159.061 201.436 155.318 204.453 151.052 207.92C150.425 208.013 149.842 208.11 149.296 208.211C144.369 209.128 142.566 210.424 139.993 212.765H147.892H158.249H160.444L164.042 211.035C169.172 209.197 173.607 207.47 180.193 204.283C182.516 203.158 185.108 201.852 188.092 200.294C193.143 197.658 199.319 194.302 207.227 189.893C207.972 189.478 208.732 189.053 209.509 188.619C212.733 183.78 215.584 179.622 218.215 175.562C224.984 165.116 230.291 155.312 236.718 136.195C235.816 136.829 234.941 137.424 234.085 137.983Z" fill="#FFE6D9"/>
<path d="M153.685 180.061C157.308 168.612 157.614 162.611 158.776 151.76L159.184 146.491C158.837 146.309 158.524 146.114 158.24 145.906C158.146 145.895 158.052 145.884 157.959 145.872C154.336 145.419 151.323 144.069 144.645 140.003C144.032 155.322 143.614 163.748 141.397 175.562C140.682 181.941 125.493 193.109 111.73 206.189C103.26 209.09 97.2231 203.356 98.8263 212.765H119.103C133.388 206.099 141.365 201.714 155.265 187.48C154.302 187.028 153.328 186.517 152.307 185.944C152.52 183.887 152.92 182.525 153.685 180.061Z" fill="#FFE6D9"/>
<path d="M174.399 190.25C167.39 190.522 162.989 190.16 159.127 188.984C158.518 189.777 157.976 190.428 157.46 191.07L168.255 194.487C170.273 193.032 172.298 191.632 174.399 190.25Z" fill="#8FB2BA"/>
<path d="M100.386 217.437C101.708 222.624 99.024 221.516 93.4734 222.282H160.883C162.374 222.191 163.588 222.056 164.569 221.857C167.666 221.228 167.095 218.117 166.914 215.595C165.749 212.373 165.758 213.335 162.638 212.765H160.444H158.249H147.892H139.993H137.184H123.359H119.103H98.8263L100.386 217.437Z" fill="#B6B6B6"/>
<path d="M72.5959 134.196L2.36268 139.397C-1.2203 140.62 0.151755 141.664 0.846621 145.789L22.0267 219.859C23.1479 223.149 22.1231 223.367 27.7948 223.676H38.1766L93.4734 222.282C99.024 221.516 101.708 222.624 100.386 217.437L98.8263 212.765L79.0787 139.397C77.2008 134.454 78.9733 134.516 72.5959 134.196Z" fill="#D9D9D9"/>
<path d="M143.504 265.195H195.114C204.496 257.805 211.543 256.154 216.882 241.143C211.064 250.732 204.564 254.066 191.954 259.37C181.8 263.446 175.892 265.223 162.638 261.908C147.535 257.262 141.761 257.379 133.23 259.37C139.301 260.617 140.359 262.61 143.504 265.195Z" fill="#8FB2BA"/>
<path d="M90.84 257.063C86.6059 255.908 82.695 254.815 79.0787 253.767C76.035 256.492 74.7136 258.436 75.3921 265.195H143.504C140.359 262.61 139.301 260.617 133.23 259.37C131.389 258.992 129.086 258.683 126.124 258.447C122.485 258.78 119.305 259.126 116.294 259.37C108.388 260.011 101.651 259.944 90.84 257.063Z" fill="#FFE6D9"/>
<path d="M75.3921 265.195C74.7136 258.436 76.035 256.492 79.0787 253.767C74.967 252.577 71.2361 251.446 67.8438 250.354C61.9621 254.066 50.464 252.183 35.5434 251.525C29.0145 253.042 27.8528 255.526 33.788 265.195H75.3921Z" fill="white"/>
<path d="M160.883 222.282H93.4734L38.1766 223.676C34.8436 224.109 32.6633 225.973 34.5657 230.415C50.6803 230.577 59.8053 230.757 79.0787 234.049C82.8904 234.65 86.217 235.142 89.1768 235.529C99.4657 236.875 105.324 236.955 111.73 235.952C134.329 229.965 146.061 226.488 182.65 222.282C177.752 221.933 176.134 221.642 164.569 221.857C163.588 222.056 162.374 222.191 160.883 222.282Z" fill="#8FB2BA"/>
<path d="M79.0787 253.767C82.695 254.815 86.6059 255.908 90.84 257.063C101.651 259.944 108.388 260.011 116.294 259.37C96.2063 245.268 96.2206 243.05 89.1768 235.529C86.217 235.142 82.8904 234.65 79.0787 234.049C59.8053 230.757 50.6803 230.577 34.5657 230.415C34.8177 231.003 35.1414 231.637 35.5434 232.318C40.7086 239.483 49.1133 244.324 67.8438 250.354C71.2361 251.446 74.967 252.577 79.0787 253.767Z" fill="#A0CED9"/>
<path d="M126.124 258.447C111.44 253.685 103.098 245.803 89.1768 235.529C96.2206 243.05 96.2063 245.268 116.294 259.37C119.305 259.126 122.485 258.78 126.124 258.447Z" fill="#8FB2BA"/>
<path d="M149.296 208.211C149.842 208.11 150.425 208.013 151.052 207.92C155.318 204.453 159.061 201.436 162.638 198.683C164.539 197.219 166.394 195.83 168.255 194.487L157.46 191.07C156.718 191.992 156.028 192.897 155.265 194.18C153.821 196.608 152.113 200.392 149.296 208.211Z" fill="#A0CED9"/>
<path d="M162.638 212.765C165.758 213.335 165.749 212.373 166.914 215.595C167.095 218.117 167.666 221.228 164.569 221.857C176.134 221.642 177.752 221.933 182.65 222.282C146.061 226.488 134.329 229.965 111.73 235.952C105.324 236.955 99.4657 236.875 89.1768 235.529C103.098 245.803 111.44 253.685 126.124 258.447C129.086 258.683 131.389 258.992 133.23 259.37C141.761 257.379 147.535 257.262 162.638 261.908C175.892 265.223 181.8 263.446 191.954 259.37C204.564 254.066 211.064 250.732 216.882 241.143C218.158 237.79 219.585 233.905 220.627 227.992C221.337 223.211 220.815 220.445 220.627 217.437C220.46 212.715 219.897 208.664 219.072 204.632C204.77 204.445 198.947 202.839 188.092 200.294C185.108 201.852 182.516 203.158 180.193 204.283C173.607 207.47 169.172 209.197 164.042 211.035L160.444 212.765H162.638Z" fill="#A0CED9"/>
<path d="M214.95 188.047C213.144 188.686 210.841 189.249 207.227 189.893C199.319 194.302 193.143 197.658 188.092 200.294C198.947 202.839 204.77 204.445 219.072 204.632C218.026 199.514 216.559 194.429 214.95 188.047Z" fill="#8FB2BA"/>
<path d="M188.443 13.0795C164.361 14.656 158.92 25.3123 157.196 49.0714C156.374 68.026 159.532 75.1818 180.193 76.3021C182.164 76.3843 184.269 76.4188 186.512 76.4113C189.88 76.0746 192.63 75.5664 195.289 74.2348C198.974 72.3898 202.486 68.9638 207.227 62.2222C227.65 68.6752 220.676 40.4969 209.509 50.2826C201.838 43.3183 197.778 42.6883 188.443 13.0795Z" fill="#FFE6D9"/>
<path d="M157.196 49.0714C158.92 25.3123 164.361 14.656 188.443 13.0795C197.778 42.6883 201.838 43.3183 209.509 50.2826C220.676 40.4969 227.65 68.6752 207.227 62.2222C202.486 68.9638 198.974 72.3898 195.289 74.2348V87.8589L207.227 86.2744L217.408 85.2362C224.381 84.6236 224.921 82.7514 228.643 81.4294C221.694 77.0003 225.367 57.0605 226.712 39.2082C227.916 21.5171 220.97 11.8992 209.509 4.60066C194.514 -4.60872 170.44 2.37469 163.714 9.59024C149.728 22.6502 149.744 38.4106 152.983 60.8379C155.828 74.0266 154.937 78.6122 151.052 84.198C154.772 85.9262 157.969 87.089 160.883 87.8589C163.513 88.5541 165.912 88.9291 168.255 89.111C171.377 89.3534 174.401 89.2532 177.745 89.111L180.193 76.3021C159.532 75.1818 156.374 68.026 157.196 49.0714Z" fill="black"/>
<path d="M155.089 141.973C155.657 144.67 155.614 145.053 157.874 145.789C156.485 144.156 155.272 129.424 157.46 119.09C155.012 129.536 154.698 137.194 155.089 141.973Z" fill="#CFCFCF"/>
<path fill-rule="evenodd" clip-rule="evenodd" d="M206.974 120.685L206.974 120.669C206.984 120.426 206.994 120.181 207.004 119.936C206.994 120.187 206.984 120.437 206.974 120.685Z" fill="#CFCFCF"/>
<path d="M213.546 145.906C212.27 146.118 210.929 146.312 209.509 146.491C209.333 145.647 209.163 144.855 208.999 144.092C207.53 137.265 206.564 132.778 207.227 114.48C207.152 116.361 207.077 118.179 207.004 119.936L206.974 120.669L206.974 120.685L206.971 120.756L206.971 120.76L206.971 120.761V120.761C206.277 137.59 205.817 148.743 207.227 156.329C207.708 155.533 208.196 154.726 208.694 153.901L208.72 153.857L208.721 153.856C210.192 151.42 211.758 148.827 213.546 145.906Z" fill="#CFCFCF"/>
<path d="M160.883 87.8589C154.607 92.1534 150.865 89.7518 145.786 119.671L142.275 138.705L143.504 139.397L144.645 140.003C151.323 144.069 154.336 145.419 157.959 145.872C157.931 145.85 157.902 145.822 157.874 145.789C155.614 145.053 155.657 144.67 155.089 141.973C154.698 137.194 155.012 129.536 157.46 119.09C155.272 129.424 156.485 144.156 157.874 145.789C157.99 145.827 158.112 145.866 158.24 145.906C158.524 146.114 158.837 146.309 159.184 146.491L158.776 151.76C157.614 162.611 157.308 168.612 153.685 180.061C152.92 182.525 152.52 183.887 152.307 185.944C153.328 186.517 154.302 187.028 155.265 187.48C156.545 188.082 157.804 188.581 159.127 188.984C162.989 190.16 167.39 190.522 174.399 190.25C179.482 186.909 185.012 183.681 191.954 180.061C199.001 169.794 202.876 163.519 207.227 156.329C205.817 148.743 206.277 137.59 206.971 120.761V120.761L206.971 120.76L206.971 120.756L206.974 120.685L206.974 120.669L207.004 119.936C207.077 118.179 207.152 116.361 207.227 114.48C206.564 132.778 207.53 137.265 208.999 144.092C209.163 144.855 209.333 145.647 209.509 146.491C210.929 146.312 212.27 146.118 213.546 145.906C221.854 144.522 227.416 142.336 234.085 137.983C234.941 137.424 235.816 136.829 236.718 136.195C237.459 135.674 238.218 135.127 239 134.552C229.615 95.5846 223.768 89.3973 217.408 85.2362L207.227 86.2744L195.289 87.8589C184.424 99.6025 179.64 102.739 173.346 102.367C167.157 101.837 166.694 98.2188 168.255 89.111C165.912 88.9291 163.513 88.5541 160.883 87.8589Z" fill="white"/>
<path d="M245.693 238.943C237.717 240.214 233.065 242.547 224.652 247.766C223.012 249.043 221.541 250.218 220.313 251.413C215.503 256.095 214.436 261.074 221.646 273.647C221.088 276.778 219.924 279.041 218.417 280.408C217.898 280.879 217.338 281.244 216.747 281.501C223.578 283.115 234.376 278.97 242.131 279.059C237.848 279.875 231.52 286.55 214.632 281.957C213.375 281.978 212.05 281.585 210.735 280.769C210.475 280.608 210.215 280.43 209.956 280.235L206.282 279.059C204.811 279.017 204.36 279.173 205.169 280.235C217.086 291.303 225.86 291.287 228.994 291.176C255.131 287.786 260.067 280.221 270.854 267.883C276.235 258.487 278.329 252.309 272.524 241.061C256.855 224.521 242.692 226.039 217.193 229.224C219.555 230.447 221.599 232.254 224.121 235.179C229.419 237.346 233.148 238.273 246.027 237.531C246.736 237.929 246.915 238.287 245.693 238.943Z" fill="#E9CB9F"/>
<path d="M224.652 247.766C233.065 242.547 237.717 240.214 245.693 238.943C246.915 238.287 246.736 237.929 246.027 237.531C233.148 238.273 229.419 237.346 224.121 235.179C224.543 235.668 224.978 236.19 225.431 236.745C225.547 243.094 224.145 245.57 221.646 247.18C221.188 247.89 220.917 248.524 220.715 249.296C220.559 249.888 220.443 250.562 220.313 251.413C221.541 250.218 223.012 249.043 224.652 247.766Z" fill="#DBB192"/>
<path d="M217.193 249.296C215.285 248.868 214.164 248.391 211.181 243.061C211.419 243.564 211.643 244.048 211.856 244.511C213.362 247.771 214.386 249.99 216.747 250.472C217.823 250.545 218.543 250.368 219.308 250.023C219.739 249.829 220.184 249.581 220.715 249.296C220.917 248.524 221.188 247.89 221.646 247.18C220.603 247.852 219.37 248.374 217.976 248.963C217.72 249.071 217.459 249.182 217.193 249.296Z" fill="#DBB192"/>
<path d="M242.131 279.059C234.376 278.97 223.578 283.115 216.747 281.501C216.076 281.793 215.366 281.946 214.632 281.957C231.52 286.55 237.848 279.875 242.131 279.059Z" fill="#DBB192"/>
<path d="M185.018 251.413C185.712 250.092 186.373 248.883 187.029 247.766C186.684 247.838 186.348 247.904 186.02 247.968C185.277 249.715 185.131 250.384 185.018 251.413Z" fill="#DBB192"/>
<path d="M191.364 270.677C189.032 268.891 187.271 266.289 185.686 262.001C185.803 262.563 185.881 263.051 185.956 263.512C186.283 265.541 186.524 267.043 189.582 271.976C189.937 271.771 190.307 271.544 190.696 271.294L191.364 270.677Z" fill="#DBB192"/>
<path d="M197.376 236.745C198.169 236.227 199.019 235.707 199.936 235.179L197.77 235.884C197.639 236.163 197.507 236.45 197.376 236.745Z" fill="#DBB192"/>
<path fill-rule="evenodd" clip-rule="evenodd" d="M197.376 236.745C198.169 236.227 199.019 235.707 199.936 235.179L197.77 235.884C200.619 229.855 203.603 227.573 212.405 227.532C214.232 227.963 215.77 228.488 217.193 229.224C219.555 230.447 221.599 232.254 224.121 235.179C224.543 235.668 224.978 236.19 225.431 236.745C225.547 243.094 224.145 245.57 221.646 247.18C220.603 247.852 219.37 248.374 217.976 248.963C217.72 249.071 217.459 249.182 217.193 249.296C215.285 248.868 214.164 248.391 211.181 243.061C211.419 243.564 211.643 244.048 211.856 244.511C213.362 247.771 214.386 249.99 216.747 250.472C217.823 250.545 218.543 250.368 219.308 250.023C219.232 250.107 219.156 250.19 219.081 250.272C216.019 255.171 212.259 258.66 221.556 274.118C220.968 277.006 219.848 279.111 218.417 280.408C219.232 276.223 218.06 274.215 216.747 273.647C214.243 273.868 210.408 275.865 210.735 280.769C210.475 280.608 210.215 280.43 209.956 280.235C209.659 280.02 209.383 279.818 209.118 279.625C207.069 278.126 205.695 277.121 200.493 274.471C196.611 273.44 193.701 272.468 191.364 270.677C189.032 268.891 187.271 266.289 185.686 262.001C185.803 262.563 185.881 263.051 185.956 263.512C186.283 265.541 186.524 267.043 189.582 271.976C186.347 273.848 184.412 273.927 181.901 273.059C176.004 268.946 176.003 265.137 176.002 258.963C176.002 258.574 176.002 258.175 176 257.766C177.995 249.532 181.007 248.945 185.718 248.027C185.818 248.008 185.918 247.988 186.02 247.968C185.277 249.715 185.131 250.384 185.018 251.413C185.712 250.092 186.373 248.883 187.029 247.766C189.818 243.017 192.522 239.914 197.376 236.745Z" fill="#E9CB9F"/>
<path d="M221.646 273.647C214.436 261.074 215.503 256.095 220.313 251.413C220.443 250.562 220.559 249.888 220.715 249.296C220.184 249.581 219.739 249.829 219.308 250.023C219.232 250.107 219.156 250.19 219.081 250.272C216.019 255.171 212.259 258.66 221.556 274.118C221.588 273.963 221.618 273.806 221.646 273.647Z" fill="#DBB192"/>
<path d="M214.632 281.957C215.366 281.946 216.076 281.793 216.747 281.501C217.338 281.244 217.898 280.879 218.417 280.408C219.232 276.223 218.06 274.215 216.747 273.647C214.243 273.868 210.408 275.865 210.735 280.769C212.05 281.585 213.375 281.978 214.632 281.957Z" fill="#595959"/>
</svg>
