<svg width="802" height="828" viewBox="0 0 802 828" fill="none" xmlns="http://www.w3.org/2000/svg">
<path d="M620.3 509.5C612.806 521.233 604.684 533.246 595.501 547.228C593.29 548.483 591.123 549.711 589.001 550.912C599.296 549.05 605.857 547.424 611 545.576C615.769 543.862 619.32 541.958 623.5 539.5C619.47 529.065 619.889 521.983 620.3 509.5Z" fill="#F1C7B2"/>
<path d="M446.501 144C441.434 66.1864 463.984 41.8717 535.501 40C562.09 125.556 573.653 127.376 595.501 147.5C627.309 119.224 647.173 200.646 589.001 182C575.498 201.48 565.496 211.38 555.001 216.711V256.078L589.001 248.5L613.501 244.103L647.501 238L640.501 223C639.53 220.474 638.692 218.601 638.03 217.275C636.035 213.28 635.637 214.247 638.03 217.275C640.121 219.921 644.346 224.142 651.5 228C631.708 215.202 640.669 167.085 644.501 115.5C640.091 54.827 627.444 35.7349 595.501 15.5C536.121 -5.00823 506.598 -5.83171 464 21C411.072 80.1973 423.777 115.551 434.5 178C442.604 216.109 440.065 229.36 429 245.5C439.597 250.494 448.703 253.854 457.001 256.078C464.492 258.087 471.325 259.171 478.001 259.697C486.892 260.397 495.506 260.107 505.028 259.697L512.001 222.685C450.321 220.077 434.672 200.871 446.501 144Z" fill="#1D1B1A"/>
<path d="M478.001 259.697C473.552 286.014 474.871 296.468 492.501 298C510.426 299.076 524.053 290.012 555.001 256.078V216.711C547.426 220.559 539.593 222.027 530.001 223C523.61 223.022 517.615 222.922 512.001 222.685L505.028 259.697C495.506 260.107 486.892 260.397 478.001 259.697Z" fill="#FFE6D9"/>
<path fill-rule="evenodd" clip-rule="evenodd" d="M607 423.807C603.365 424.422 599.545 424.981 595.501 425.5C595.002 423.061 594.516 420.771 594.048 418.566C589.864 398.84 587.114 385.876 589.001 333C588.754 339.286 588.508 345.328 588.272 351.137C588.272 351.14 588.272 351.143 588.272 351.147L588.272 351.149V351.151C586.295 399.778 584.986 432.007 589.001 453.926C590.397 451.586 591.81 449.212 593.255 446.784L593.257 446.78C597.448 439.74 601.908 432.247 607 423.807ZM436.5 411.5C438.198 419.695 441.977 421.44 449.475 423.807C444.683 420.238 442.348 414.831 440.5 408C438.874 403.537 442.189 383.574 446.532 357.417C447.957 348.835 449.492 339.587 451.001 330C449.704 335.707 448.449 341.142 447.254 346.313C447.253 346.316 447.253 346.32 447.252 346.323C440.28 376.506 435.386 397.693 436.5 411.5Z" fill="#F1C7B2"/>
<path d="M457.001 256.078C439.127 268.488 428.468 261.548 414.001 348L404 403L407.501 405L410.751 406.75C430.264 418.804 438.79 422.596 449.475 423.807C441.977 421.44 438.198 419.695 436.5 411.5C435.386 397.693 440.28 376.506 447.252 346.323L447.254 346.313C448.449 341.142 449.704 335.707 451.001 330C449.492 339.587 447.957 348.835 446.532 357.417C442.189 383.574 438.874 403.537 440.5 408C442.348 414.831 444.683 420.238 449.475 423.807C450.282 424.409 451.173 424.972 452.162 425.5L451.001 440.722C447.692 472.077 446.82 489.419 436.501 522.5C434.321 529.621 433.18 533.555 432.575 539.5C435.483 541.154 438.258 542.631 441 543.939C444.645 545.678 448.232 547.119 452 548.283C463 551.683 475.535 552.727 495.5 551.943C509.978 542.289 525.727 532.959 545.5 522.5C565.572 492.834 576.609 474.703 589.001 453.926C584.986 432.007 586.295 399.778 588.272 351.151V351.149L588.272 351.147L588.272 351.137C588.508 345.328 588.754 339.286 589.001 333C587.114 385.876 589.864 398.84 594.048 418.566C594.516 420.771 595.002 423.061 595.501 425.5C599.545 424.981 603.365 424.422 607 423.807C630.664 419.809 646.505 413.492 665.5 400.914C667.94 399.298 670.433 397.579 673 395.748C675.112 394.243 677.274 392.661 679.501 391C668.172 290.353 649.72 270.176 613.501 244.103L589.001 248.5L555.001 256.078C524.053 290.012 510.426 299.076 492.501 298C474.871 296.468 473.552 286.014 478.001 259.697C471.325 259.171 464.492 258.087 457.001 256.078Z" fill="#FFAE84" fill-opacity="0.54"/>
<path d="M665.5 400.914C646.505 413.492 630.664 419.809 607 423.807C601.908 432.247 597.448 439.74 593.257 446.78L593.255 446.784C591.81 449.212 590.397 451.586 589.001 453.926C576.609 474.703 565.572 492.834 545.5 522.5C525.727 532.959 509.978 542.289 495.5 551.943C489.515 555.934 483.746 559.98 478.001 564.185C472.699 568.065 467.416 572.079 462 576.309C451.812 584.265 441.152 592.983 429 603C427.215 603.269 425.553 603.549 424 603.842C409.965 606.492 404.831 610.235 397.5 617H420H449.501H455.75L466 612C480.611 606.69 493.242 601.701 512.001 592.491C518.619 589.241 526 585.465 534.5 580.965C548.887 573.347 566.478 563.652 589.001 550.912C591.123 549.711 593.29 548.483 595.501 547.228C604.684 533.246 612.806 521.233 620.3 509.5C639.579 479.316 654.696 450.986 673 395.748C670.433 397.579 667.94 399.298 665.5 400.914Z" fill="#FFE6D9"/>
<path d="M436.501 522.5C446.82 489.419 447.692 472.077 451.001 440.722L452.162 425.5C451.173 424.972 450.282 424.409 449.475 423.807C438.79 422.596 430.264 418.804 410.751 406.75C409.005 451.016 407.815 475.364 401.5 509.5C399.463 527.933 356.202 560.204 317 598C292.874 606.38 275.681 589.813 280.247 617H338C378.688 597.739 401.408 585.068 441 543.939C438.258 542.631 435.483 541.154 432.575 539.5C433.18 533.555 434.321 529.621 436.501 522.5Z" fill="#FFE6D9"/>
<path d="M495.5 551.943C475.535 552.727 463 551.683 452 548.283C450.266 550.575 448.723 552.456 447.252 554.312L478.001 564.185C483.746 559.98 489.515 555.934 495.5 551.943Z" fill="#7585B9"/>
<path d="M282.001 623.5C285.765 638.488 280.81 642.286 265.001 644.5H457.001C461.248 644.238 464.706 643.848 467.5 643.272C476.321 641.453 478.517 637.787 478.001 630.5C474.682 621.19 470.887 618.646 462 617H455.75H449.501H420H397.5H389.5H350.124H338H280.247L282.001 623.5Z" fill="#939393" fill-opacity="0.5"/>
<path d="M192.001 391L10.5006 405C0.295237 408.535 -0.978616 413.579 1.00056 425.5L61.5006 637.5C64.6941 647.005 72.8462 648.107 89.0005 649L107.5 648.527L265.001 644.5C280.81 642.286 285.765 638.488 282.001 623.5L280.247 617L224.001 408.5C218.652 394.217 210.165 391.927 192.001 391Z" fill="#C4C4C4" fill-opacity="0.5"/>
<path d="M407.501 768.5H554.5C581.222 747.145 601.296 742.375 616.502 699C599.93 726.707 581.418 736.342 545.5 751.668C516.578 763.446 499.753 768.579 462 759C418.983 745.577 402.538 745.914 378.238 751.668C395.531 755.269 398.543 761.03 407.501 768.5Z" fill="#7585B9"/>
<path d="M257.5 745C245.44 741.665 234.301 738.505 224.001 735.479C215.331 743.35 211.568 748.969 213.5 768.5H407.501C398.543 761.03 395.531 755.269 378.238 751.668C372.994 750.576 366.436 749.682 358 749C347.634 749.962 338.576 750.963 330 751.668C307.482 753.519 288.293 753.325 257.5 745Z" fill="#FFE6D9"/>
<path d="M213.5 768.5C211.568 748.969 215.331 743.35 224.001 735.479C212.289 732.038 201.663 728.77 192.001 725.614C175.248 736.343 142.498 730.901 100 729C81.4039 733.382 78.0951 740.561 95 768.5H213.5Z" fill="#856363" fill-opacity="0.54"/>
<path d="M457.001 644.5H265.001L107.5 648.527C98.0068 649.78 91.7966 655.165 97.2153 668C143.114 668.468 169.104 668.989 224.001 678.5C234.857 680.237 244.332 681.659 252.763 682.778C282.068 686.667 298.754 686.897 317 684C381.369 666.699 414.783 656.653 519 644.5C505.051 643.491 500.442 642.651 467.5 643.272C464.706 643.848 461.248 644.238 457.001 644.5Z" fill="#7585B9"/>
<path d="M224.001 735.479C234.301 738.505 245.44 741.665 257.5 745C288.293 753.325 307.482 753.519 330 751.668C272.785 710.92 272.826 704.511 252.763 682.778C244.332 681.659 234.857 680.237 224.001 678.5C169.104 668.989 143.114 668.468 97.2153 668C97.9331 669.7 98.8548 671.531 100 673.5C114.712 694.204 138.651 708.192 192.001 725.614C201.663 728.77 212.289 732.038 224.001 735.479Z" fill="#8694F5"/>
<path d="M358 749C316.174 735.241 292.414 712.465 252.763 682.778C272.826 704.511 272.785 710.92 330 751.668C338.576 750.963 347.634 749.962 358 749Z" fill="#7585B9"/>
<path d="M424 603.842C425.553 603.549 427.215 603.269 429 603C441.152 592.983 451.812 584.265 462 576.309C467.416 572.079 472.699 568.065 478.001 564.185L447.252 554.312C445.14 556.976 443.175 559.59 441 563.299C436.887 570.314 432.023 581.246 424 603.842Z" fill="#8694F5"/>
<path d="M462 617C470.887 618.646 474.682 621.19 478.001 630.5C478.517 637.787 476.321 641.453 467.5 643.272C500.442 642.651 505.051 643.491 519 644.5C414.783 656.653 381.369 666.699 317 684C298.754 686.897 282.068 686.667 252.763 682.778C292.414 712.465 316.174 735.241 358 749C366.436 749.682 372.994 750.576 378.238 751.668C402.538 745.914 418.983 745.577 462 759C499.753 768.579 516.578 763.446 545.5 751.668C581.418 736.342 599.93 726.707 616.502 699C620.136 689.312 624.202 678.085 627.17 661C629.191 647.185 627.705 639.193 627.17 630.5C626.694 616.856 625.089 605.149 622.741 593.5C582.004 592.96 565.419 588.317 534.5 580.965C526 585.465 518.619 589.241 512.001 592.491C493.242 601.701 480.611 606.69 466 612L455.75 617H462Z" fill="#8694F5"/>
<path d="M611 545.576C605.857 547.424 599.296 549.05 589.001 550.912C566.478 563.652 548.887 573.347 534.5 580.965C565.419 588.317 582.004 592.96 622.741 593.5C619.761 578.711 615.584 564.017 611 545.576Z" fill="#7585B9"/>
<path d="M535.501 40C463.984 41.8717 441.434 66.1864 446.501 144C434.672 200.871 450.321 220.077 512.001 222.685C517.615 222.922 523.61 223.022 530.001 223C539.593 222.027 547.426 220.559 555.001 216.711C565.496 211.38 575.498 201.48 589.001 182C647.173 200.646 627.309 119.224 595.501 147.5C573.653 127.376 562.09 125.556 535.501 40Z" fill="#FFE6D9"/>
<path d="M711.383 676.959C687.535 680.634 673.623 687.377 648.469 702.463C643.566 706.154 639.167 709.551 635.497 713.004C621.113 726.538 617.924 740.931 639.481 777.275C637.812 786.325 634.334 792.868 629.828 796.819C628.275 798.18 626.6 799.234 624.834 799.976C645.258 804.644 677.546 792.66 700.731 792.917C687.927 795.277 669.006 814.572 618.51 801.297C614.752 801.356 610.79 800.219 606.859 797.862C606.08 797.395 605.303 796.881 604.529 796.318L593.544 792.917C589.146 792.797 587.796 793.248 590.215 796.318C625.847 828.312 652.08 828.265 661.451 827.943C739.602 818.146 754.362 796.277 786.615 760.612C802.701 733.452 808.965 715.596 791.608 683.08C744.756 635.268 702.41 639.659 626.166 648.865C633.229 652.401 639.341 657.622 646.88 666.077C662.723 672.342 673.872 675.021 712.382 672.878C714.501 674.026 715.037 675.063 711.383 676.959Z" fill="#BF9E85"/>
<path d="M648.469 702.463C673.623 687.377 687.535 680.634 711.383 676.959C715.037 675.063 714.501 674.026 712.382 672.878C673.872 675.021 662.723 672.342 646.88 666.077C648.143 667.493 649.445 668.999 650.799 670.604C651.145 688.956 646.953 696.113 639.481 700.769C638.112 702.82 637.303 704.654 636.697 706.883C636.231 708.597 635.885 710.545 635.497 713.004C639.167 709.551 643.566 706.154 648.469 702.463Z" fill="#A48C7A"/>
<path d="M626.166 706.883C620.463 705.647 617.11 704.27 608.19 688.861C608.903 690.315 609.571 691.714 610.21 693.052C614.712 702.478 617.774 708.89 624.834 710.284C628.05 710.494 630.204 709.982 632.491 708.986C633.779 708.425 635.11 707.709 636.697 706.883C637.303 704.654 638.112 702.82 639.481 700.769C636.364 702.712 632.675 704.219 628.507 705.922C627.743 706.235 626.962 706.554 626.166 706.883Z" fill="#A48C7A"/>
<path d="M700.731 792.917C677.546 792.66 645.258 804.644 624.834 799.976C622.827 800.821 620.703 801.262 618.51 801.297C669.006 814.572 687.927 795.277 700.731 792.917Z" fill="#A48C7A"/>
<path d="M529.963 713.004C532.04 709.184 534.015 705.692 535.976 702.463C534.946 702.669 533.941 702.862 532.959 703.047C530.739 708.095 530.301 710.029 529.963 713.004Z" fill="#A48C7A"/>
<path d="M548.938 768.69C541.965 763.526 536.7 756.005 531.961 743.609C532.311 745.233 532.546 746.645 532.768 747.977C533.745 753.844 534.468 758.185 543.611 772.444C544.672 771.85 545.779 771.195 546.94 770.474L548.938 768.69Z" fill="#A48C7A"/>
<path d="M566.913 670.604C569.284 669.107 571.826 667.605 574.569 666.077L568.093 668.117C567.7 668.923 567.307 669.751 566.913 670.604Z" fill="#A48C7A"/>
<path fill-rule="evenodd" clip-rule="evenodd" d="M566.913 670.604C569.284 669.107 571.826 667.605 574.569 666.077L568.093 668.117C576.61 650.687 585.533 644.091 611.852 643.973C617.314 645.218 621.913 646.736 626.166 648.865C633.229 652.401 639.341 657.622 646.88 666.077C648.143 667.493 649.445 668.999 650.799 670.604C651.145 688.956 646.953 696.113 639.481 700.769C636.364 702.712 632.675 704.219 628.507 705.922C627.743 706.235 626.962 706.554 626.166 706.883C620.463 705.647 617.11 704.27 608.19 688.861C608.903 690.315 609.571 691.714 610.21 693.052C614.712 702.478 617.774 708.89 624.834 710.284C628.05 710.494 630.204 709.982 632.491 708.986C632.263 709.228 632.037 709.468 631.812 709.707C622.656 723.868 611.415 733.952 639.213 778.635C637.456 786.983 634.105 793.068 629.828 796.819C632.265 784.721 628.761 778.917 624.834 777.275C617.346 777.914 605.88 783.686 606.859 797.862C606.08 797.395 605.303 796.881 604.529 796.318C603.641 795.697 602.815 795.113 602.023 794.554C595.896 790.221 591.787 787.316 576.234 779.655C564.627 776.675 555.925 773.866 548.938 768.69C541.965 763.526 536.7 756.005 531.961 743.609C532.311 745.233 532.546 746.645 532.768 747.977C533.745 753.844 534.468 758.185 543.611 772.444C533.937 777.857 528.152 778.084 520.643 775.575C503.011 763.686 503.009 752.675 503.005 734.829C503.005 733.703 503.005 732.55 503 731.367C508.966 707.566 517.972 705.87 532.057 703.217C532.356 703.161 532.656 703.104 532.959 703.047C530.739 708.095 530.301 710.029 529.963 713.004C532.04 709.184 534.015 705.692 535.976 702.463C544.314 688.735 552.4 679.765 566.913 670.604Z" fill="#BF9E85"/>
<path d="M639.481 777.275C617.924 740.931 621.113 726.538 635.497 713.004C635.885 710.545 636.231 708.597 636.697 706.883C635.11 707.709 633.779 708.425 632.491 708.986C632.263 709.228 632.037 709.468 631.812 709.707C622.656 723.868 611.415 733.952 639.213 778.635C639.307 778.188 639.396 777.735 639.481 777.275Z" fill="#A48C7A"/>
<path d="M618.51 801.297C620.703 801.262 622.827 800.821 624.834 799.976C626.6 799.234 628.275 798.18 629.828 796.819C632.265 784.721 628.761 778.917 624.834 777.275C617.346 777.914 605.88 783.686 606.859 797.862C610.79 800.219 614.752 801.356 618.51 801.297Z" fill="#595959"/>
<path d="M594.5 170C596.785 166.117 598.415 162.427 600.487 160M614.5 160C607.057 155.707 603.35 156.648 600.487 160M603 177.5C605.798 173.405 605.726 169.917 600.487 160M563 772C570.322 771.998 573.612 770.848 577.5 766M600.5 748C604.209 744.081 606.246 741.863 608 737" stroke="#8D7575" stroke-opacity="0.32" stroke-width="3"/>
</svg>
