<svg width="95" height="59" viewBox="0 0 95 59" fill="none" xmlns="http://www.w3.org/2000/svg">
<path d="M7.11971 51.5332C38.0837 62.3603 44.6695 58.7481 61.1197 56.5332C64.7691 55.1122 67.342 53.9131 69.1196 52.842C70.8226 51.8159 71.7956 50.9072 72.2857 50.0332L69.1196 44.5041C69.8931 44.6928 70.7234 44.8665 71.6197 45.0332C72.4508 46.9277 73.1894 48.4214 72.2857 50.0332C87.4845 47.0002 91.0429 43.6833 93.6196 36.5332C95.2333 30.144 95.9309 26.4909 90.1196 17.5332C75.57 1.63762 65.3843 -0.301204 46.1197 0.0332173C27.0685 0.925661 19.2374 5.85832 7.11971 17.5332C-4.93842 36.9783 0.585773 44.3301 7.11971 51.5332Z" fill="#FCC18A"/>
<path d="M72.2857 50.0332C73.1894 48.4214 72.4508 46.9277 71.6197 45.0332C70.7234 44.8665 69.8931 44.6928 69.1196 44.5041L72.2857 50.0332Z" fill="black"/>
<path d="M16.6196 26.5337C19.1749 35.7614 19.5566 42.0313 27.6196 45.5337H30.6196C36.5689 41.2896 35.4937 35.5679 35.1196 26.5337M27.6196 16.5337C40.2797 14.3306 50.2263 15.747 54.6196 25.5337C56.3428 34.0142 57.4488 37.7958 60.1196 39.5334C64.5209 43.4845 67.0199 45.1006 71.6196 45.5337" stroke="black" stroke-opacity="0.14" stroke-width="0.5"/>
</svg>
